<svg width="64" height="64" viewBox="0 0 64 64" fill="none" xmlns="http://www.w3.org/2000/svg">
<rect width="64" height="64" rx="8" fill="#FFC4D1"/>
<path d="M32.5 2L39.1591 13.2042L51.4622 8.90169L49.3615 21.765L61.5518 26.3774L51.6742 34.8809L58.0477 46.25L45.0151 46.4149L42.5896 59.2209L32.5 50.97L22.4104 59.2209L19.9849 46.4149L6.95225 46.25L13.3258 34.8809L3.44817 26.3774L15.6385 21.765L13.5378 8.90169L25.8409 13.2042L32.5 2Z" fill="#EFAAC4"/>
<path d="M32.5035 37.6945C33.7419 37.6945 34.8055 37.2587 35.6944 36.3873C36.5833 35.5158 37.0278 34.4515 37.0278 33.1945V23.1945H42.1944V20.0278H35.1944V29.6111C34.8257 29.3519 34.4027 29.1528 33.9253 29.0139C33.4478 28.875 32.9684 28.8056 32.4869 28.8056C31.2582 28.8056 30.2264 29.2323 29.3914 30.0857C28.5564 30.9391 28.1389 31.9762 28.1389 33.1968C28.1389 34.436 28.5567 35.4954 29.3924 36.375C30.2281 37.2546 31.2651 37.6945 32.5035 37.6945ZM23.7777 43.4445C22.8291 43.4445 22.0086 43.0953 21.3163 42.3971C20.6239 41.6988 20.2777 40.8813 20.2777 39.9445V17.5C20.2777 16.5632 20.6239 15.7457 21.3163 15.0474C22.0086 14.3491 22.8291 14 23.7777 14H46.2222C47.159 14 47.9765 14.3491 48.6748 15.0474C49.3731 15.7457 49.7222 16.5632 49.7222 17.5V39.9445C49.7222 40.8813 49.3731 41.6988 48.6748 42.3971C47.9765 43.0953 47.159 43.4445 46.2222 43.4445H23.7777ZM17.5 49.7222C16.5514 49.7222 15.7309 49.3731 15.0385 48.6748C14.3462 47.9765 14 47.159 14 46.2222V20.2778H17.5V46.2222H43.4445V49.7222H17.5Z" fill="#6B717E"/>
</svg>
