<svg width="24" height="24" viewBox="0 0 24 24" fill="none" xmlns="http://www.w3.org/2000/svg">
<path d="M1 12C1 5.925 5.925 1 12 1C18.075 1 23 5.925 23 12C23 18.075 18.075 23 12 23C5.925 23 1 18.075 1 12ZM9.75 7.433C9.67399 7.38912 9.58777 7.36601 9.5 7.36601C9.41224 7.36601 9.32601 7.38911 9.25001 7.433C9.174 7.47688 9.11088 7.54 9.06699 7.616C9.02311 7.69201 9 7.77823 9 7.866V16.134C9 16.2218 9.02311 16.308 9.06699 16.384C9.11088 16.46 9.174 16.5231 9.25001 16.567C9.32601 16.6109 9.41224 16.634 9.5 16.634C9.58777 16.634 9.67399 16.6109 9.75 16.567L16.911 12.433C16.987 12.3891 17.0501 12.326 17.094 12.25C17.1379 12.174 17.161 12.0878 17.161 12C17.161 11.9122 17.1379 11.826 17.094 11.75C17.0501 11.674 16.987 11.6109 16.911 11.567L9.75 7.433Z" fill="white"/>
</svg>
