<svg width="16" height="16" viewBox="0 0 16 16" fill="none" xmlns="http://www.w3.org/2000/svg">
<path d="M12.7 1C12.5143 1 12.3363 1.07375 12.205 1.20503C12.0738 1.3363 12 1.51435 12 1.7V6.85L2.05 1.107C1.94368 1.04561 1.82308 1.01327 1.7003 1.01322C1.57753 1.01316 1.4569 1.0454 1.35053 1.1067C1.24415 1.16799 1.15576 1.25618 1.09424 1.36243C1.03271 1.46867 1.00021 1.58923 1 1.712V14.287C0.999863 14.4099 1.03211 14.5308 1.09349 14.6373C1.15487 14.7438 1.24322 14.8323 1.34966 14.8938C1.4561 14.9553 1.57686 14.9877 1.6998 14.9878C1.82275 14.9878 1.94353 14.9555 2.05 14.894L12 9.149V14.3C12 14.4857 12.0738 14.6637 12.205 14.795C12.3363 14.9262 12.5143 15 12.7 15H14.3C14.4857 15 14.6637 14.9262 14.795 14.795C14.9262 14.6637 15 14.4857 15 14.3V1.7C15 1.51435 14.9262 1.3363 14.795 1.20503C14.6637 1.07375 14.4857 1 14.3 1H12.7Z" fill="white"/>
</svg>
