<svg width="48" height="48" viewBox="0 0 48 48" fill="none" xmlns="http://www.w3.org/2000/svg">
<path d="M24 20C26.1217 20 28.1566 19.1571 29.6569 17.6569C31.1571 16.1566 32 14.1217 32 12C32 9.87827 31.1571 7.84344 29.6569 6.34315C28.1566 4.84285 26.1217 4 24 4C21.8783 4 19.8434 4.84285 18.3431 6.34315C16.8429 7.84344 16 9.87827 16 12C16 14.1217 16.8429 16.1566 18.3431 17.6569C19.8434 19.1571 21.8783 20 24 20ZM23.06 22C18.005 22 13.157 24.0081 9.58254 27.5825C6.0081 31.157 4 36.005 4 41.06C4 42.68 5.32 44 6.94 44H7.38C7.86 44 8.26 43.66 8.38 43.2C8.96 40.96 10.06 38.86 11.02 37.38C11.3 36.96 11.88 37.18 11.82 37.68L11.3 42.9C11.26 43.5 11.7 44 12.3 44H23.76C24.5 44 24.98 43.24 24.76 42.54C23.6396 39.2747 23.7652 35.7105 25.1126 32.5321C26.46 29.3538 28.9342 26.7853 32.06 25.32C32.86 24.92 32.98 23.76 32.16 23.42C29.8689 22.4807 27.4162 21.9983 24.94 22H23.06Z" fill="white"/>
<path fill-rule="evenodd" clip-rule="evenodd" d="M48 38C48 40.6522 46.9464 43.1957 45.0711 45.0711C43.1957 46.9464 40.6522 48 38 48C35.3478 48 32.8043 46.9464 30.9289 45.0711C29.0536 43.1957 28 40.6522 28 38C28 35.3478 29.0536 32.8043 30.9289 30.9289C32.8043 29.0536 35.3478 28 38 28C40.6522 28 43.1957 29.0536 45.0711 30.9289C46.9464 32.8043 48 35.3478 48 38ZM42.46 37.6L35.8 32.6C35.7257 32.5443 35.6374 32.5104 35.5449 32.502C35.4524 32.4937 35.3594 32.5113 35.2764 32.5528C35.1933 32.5943 35.1235 32.6581 35.0747 32.7371C35.0259 32.8161 35 32.9071 35 33V43C35 43.4 35.48 43.64 35.8 43.4L42.46 38.4C42.74 38.2 42.74 37.8 42.46 37.6Z" fill="white"/>
</svg>
